<?xml version="1.0" encoding="utf-8"?>
<!-- Generator: Adobe Illustrator 25.0.0, SVG Export Plug-In . SVG Version: 6.00 Build 0)  -->
<svg version="1.1" id="Слой_1" xmlns="http://www.w3.org/2000/svg" xmlns:xlink="http://www.w3.org/1999/xlink" x="0px" y="0px"
	 viewBox="0 0 483.7 127.4" style="enable-background:new 0 0 483.7 127.4;" xml:space="preserve">
<style type="text/css">
	.st0{fill:#EE3F23;}
	.st1{fill:#0F1539;}
	.st2{fill:#FFFFFF;}
	.st3{fill:#23C84D;}
	.st4{fill-rule:evenodd;clip-rule:evenodd;}
</style>
<path class="st0" d="M41.8,100.1c-17.5,0-29.2-7-29.2-11.7v-3.4l1.5,0.8c7.4,3.8,17.2,5.9,27.7,5.9c10.5,0,20.3-2.1,27.7-5.9
	l1.5-0.8v3.4C71,93.1,59.4,100.1,41.8,100.1z"/>
<path class="st0" d="M156.5,111.3c-6.9,0-12.8-1.4-17.6-4.1c-4.9-2.7-8.6-6.5-11.3-11.4c-2.6-4.9-3.9-10.7-3.9-17.4
	c0-6.6,1.3-12.4,3.9-17.3c2.6-4.9,6.4-8.7,11.3-11.4c4.9-2.7,10.8-4.1,17.6-4.1c3,0,6.1,0.4,9.2,1.2c3.1,0.8,5.8,1.8,8.1,3.2
	c1.9,1.1,3,2.4,3.4,4.1c0.4,1.6,0.3,3.2-0.4,4.6c-0.7,1.4-1.8,2.5-3.2,3.1c-1.4,0.6-3.1,0.4-4.9-0.6c-1.8-1.1-3.7-1.9-5.7-2.4
	c-2-0.5-4-0.7-6.1-0.7c-6.1,0-10.7,1.8-13.8,5.3c-3.1,3.5-4.7,8.6-4.7,15.1c0,6.6,1.6,11.6,4.7,15.2c3.1,3.6,7.7,5.3,13.8,5.3
	c1.9,0,3.9-0.2,5.9-0.7c2-0.5,4-1.2,5.8-2.3c1.9-1,3.6-1.3,5.1-0.7c1.4,0.6,2.5,1.5,3.2,2.9c0.7,1.4,0.9,2.8,0.5,4.4
	c-0.4,1.6-1.4,2.9-3.1,3.9c-2.3,1.5-5,2.7-8.3,3.5C162.9,110.9,159.7,111.3,156.5,111.3z"/>
<path class="st0" d="M202.2,111.3c-10.7,0-16-5.9-16-17.8V52.7c0-4.6,2.3-7,6.9-7c4.5,0,6.8,2.3,6.8,7V93c0,2.5,0.5,4.3,1.6,5.5
	c1.1,1.2,2.5,1.8,4.2,1.8c0.5,0,0.9,0,1.4-0.1c0.5-0.1,0.9-0.1,1.3-0.1c1-0.1,1.6,0.2,2,0.9c0.4,0.7,0.6,2,0.6,4.1
	c0,3.5-1.5,5.5-4.4,6c-0.6,0.1-1.3,0.1-2.1,0.2C203.7,111.3,203,111.3,202.2,111.3z"/>
<path class="st0" d="M223.2,57.8c-2.5,0-4.5-0.6-5.8-1.8c-1.4-1.2-2-2.8-2-5c0-2.2,0.7-3.9,2-5.1c1.4-1.2,3.3-1.8,5.8-1.8
	c5.2,0,7.8,2.3,7.8,6.9C231,55.5,228.4,57.8,223.2,57.8z M223.2,111c-2.2,0-3.9-0.6-5.1-1.9c-1.2-1.3-1.8-3.1-1.8-5.5V72.7
	c0-5,2.3-7.5,6.9-7.5c2.2,0,3.8,0.6,5,1.9c1.2,1.3,1.8,3.2,1.8,5.6v30.9c0,2.4-0.6,4.2-1.7,5.5C227.1,110.4,225.5,111,223.2,111z"/>
<path class="st0" d="M262.2,111.3c-4.8,0-9-0.9-12.6-2.8c-3.6-1.9-6.3-4.6-8.3-8.1c-1.9-3.5-2.9-7.6-2.9-12.4c0-4.8,1-8.9,2.9-12.3
	c1.9-3.4,4.7-6.1,8.3-7.9c3.6-1.8,7.8-2.8,12.6-2.8c1.9,0,3.9,0.2,6,0.7c2.1,0.5,4.2,1.2,6.2,2.3c1.5,0.7,2.4,1.7,2.8,3
	c0.4,1.3,0.3,2.6-0.2,3.8c-0.5,1.3-1.3,2.2-2.4,2.8c-1.1,0.6-2.4,0.5-3.9-0.3c-2.4-1.3-4.8-1.9-7.1-1.9c-3.6,0-6.3,1.1-8.3,3.3
	c-2,2.2-2.9,5.3-2.9,9.4c0,4,1,7.1,2.9,9.4c2,2.3,4.7,3.4,8.3,3.4c1.1,0,2.2-0.1,3.4-0.4c1.2-0.3,2.4-0.7,3.6-1.4
	c1.5-0.8,2.8-0.9,3.9-0.3c1.1,0.6,1.9,1.5,2.3,2.8c0.4,1.2,0.5,2.5,0.1,3.8c-0.4,1.3-1.3,2.4-2.7,3.1c-2,1-4.1,1.8-6.1,2.2
	C266,111.1,264.1,111.3,262.2,111.3z"/>
<path class="st0" d="M290.7,111.1c-4.6,0-6.9-2.3-6.9-7V52.7c0-4.6,2.3-7,6.9-7c4.5,0,6.8,2.3,6.8,7v31.6h0.2l13.1-14.6
	c1.3-1.5,2.5-2.6,3.6-3.4c1.1-0.8,2.6-1.1,4.5-1.1c1.9,0,3.3,0.5,4.3,1.4c1,0.9,1.5,2.1,1.5,3.5c0,1.4-0.6,2.8-1.8,4.1l-11.6,12.9
	l13.1,15.1c1.1,1.4,1.6,2.8,1.5,4.2c-0.2,1.4-0.8,2.5-1.9,3.3c-1.1,0.9-2.5,1.3-4.2,1.3c-2.1,0-3.8-0.4-4.9-1.2
	c-1.2-0.8-2.4-2-3.8-3.6l-13.7-15.2h-0.2v13C297.5,108.8,295.2,111.1,290.7,111.1z"/>
<g>
	<g>
		<path class="st1" d="M342.5,111.1c-2.3,0-4-0.6-5.2-1.9c-1.2-1.3-1.8-3-1.8-5.3V53.7c0-4.8,2.4-7.1,7.1-7.1h22
			c7.1,0,12.6,1.8,16.5,5.4c3.9,3.6,5.8,8.6,5.8,15c0,6.4-1.9,11.4-5.8,15c-3.9,3.6-9.3,5.4-16.5,5.4h-15.1v16.5
			c0,2.3-0.6,4.1-1.8,5.3C346.5,110.5,344.8,111.1,342.5,111.1z M349.5,76.5h12.8c7.4,0,11.1-3.2,11.1-9.6c0-6.3-3.7-9.4-11.1-9.4
			h-12.8V76.5z"/>
		<path class="st1" d="M407.3,111.3c-3.3,0-6.2-0.6-8.8-1.9s-4.5-3-6-5.2c-1.5-2.2-2.2-4.6-2.2-7.3c0-3.2,0.8-5.8,2.5-7.7
			c1.7-1.9,4.4-3.3,8.2-4.1c3.8-0.8,8.8-1.2,15.1-1.2h3.3v-1.5c0-2.7-0.6-4.5-1.8-5.7c-1.2-1.1-3.3-1.7-6.1-1.7
			c-1.6,0-3.4,0.2-5.3,0.6c-1.9,0.4-4,1-6.2,1.9c-1.7,0.7-3.1,0.8-4.2,0.1c-1.1-0.6-1.9-1.6-2.3-2.9c-0.4-1.3-0.3-2.6,0.3-3.9
			c0.6-1.3,1.7-2.3,3.4-2.9c2.8-1.1,5.5-1.9,8-2.3c2.5-0.5,4.8-0.7,6.9-0.7c6.9,0,12,1.6,15.4,4.7c3.4,3.1,5.1,7.9,5.1,14.4v20.1
			c0,4.6-2.1,7-6.3,7c-4.3,0-6.4-2.3-6.4-7v-0.5c-0.9,2.4-2.4,4.2-4.6,5.6C413,110.6,410.4,111.3,407.3,111.3z M410.4,102.2
			c2.5,0,4.7-0.9,6.4-2.6c1.7-1.7,2.6-4,2.6-6.8V91h-3.2c-4.6,0-7.9,0.4-9.9,1.2c-1.9,0.8-2.9,2.2-2.9,4.2c0,1.7,0.6,3.1,1.8,4.2
			C406.5,101.6,408.2,102.2,410.4,102.2z"/>
		<path class="st1" d="M454.4,127.4c-2.4,0-4.1-0.9-5.1-2.7c-1-1.8-1-3.8,0.1-6.2l4.8-10.7l-14.7-33.8c-1-2.4-1-4.4,0-6.2
			c1-1.8,3-2.7,6-2.7c1.6,0,2.9,0.4,3.9,1.1c1,0.8,1.9,2.2,2.8,4.3l9.2,23.5l9.6-23.6c0.8-2,1.8-3.5,2.8-4.2
			c1.1-0.8,2.5-1.1,4.3-1.1c2.3,0,3.9,0.9,4.8,2.7c0.9,1.8,0.9,3.8-0.1,6.1l-21.3,48.2c-0.9,2-1.9,3.4-3,4.2
			C457.5,127,456.1,127.4,454.4,127.4z"/>
	</g>
</g>
<path class="st0" d="M41.8,33.7c3.8,0,6.8-3.1,6.8-6.8v-20c0-3.8-3.1-6.8-6.8-6.8S35,3.1,35,6.8v20C35,30.6,38.1,33.7,41.8,33.7z"/>
<path class="st0" d="M13.5,33c1.3,2.2,3.6,3.4,5.9,3.4c1.2,0,2.3-0.3,3.4-0.9c3.3-1.9,4.4-6.1,2.5-9.3l-10-17.3
	C13.5,5.6,9.3,4.5,6,6.4c-3.3,1.9-4.4,6.1-2.5,9.3L13.5,33z"/>
<path class="st0" d="M60.8,35.5c1.1,0.6,2.2,0.9,3.4,0.9c2.4,0,4.7-1.2,5.9-3.4l10-17.3c1.9-3.3,0.8-7.4-2.5-9.3
	c-3.3-1.9-7.4-0.8-9.3,2.5l-10,17.3C56.4,29.5,57.6,33.7,60.8,35.5z"/>
<path class="st1" d="M41.8,44.1C18,44.1,0,54.6,0,68.4v20c0,13.9,18,24.3,41.8,24.3c23.8,0,41.8-10.5,41.8-24.3v-20
	C83.7,54.6,65.7,44.1,41.8,44.1z M41.8,57.8c17.5,0,28.2,6.9,28.2,10.7S59.3,79.1,41.8,79.1s-28.2-6.9-28.2-10.7
	S24.4,57.8,41.8,57.8z M41.8,99.1c-17.5,0-28.2-6.9-28.2-10.7v-1.7c7.3,3.8,17.1,6,28.2,6s20.8-2.3,28.2-6v1.7
	C70,92.2,59.3,99.1,41.8,99.1z"/>
</svg>
