<?xml version="1.0" encoding="utf-8"?>
<!-- Generator: Adobe Illustrator 25.0.0, SVG Export Plug-In . SVG Version: 6.00 Build 0)  -->
<svg version="1.1" id="Слой_1" xmlns="http://www.w3.org/2000/svg" xmlns:xlink="http://www.w3.org/1999/xlink" x="0px" y="0px"
	 viewBox="0 0 14.1 14.1" style="enable-background:new 0 0 14.1 14.1;" xml:space="preserve">
<style type="text/css">
	.st0{fill:#EE3F23;}
	.st1{fill:#0F1539;}
	.st2{fill:#FFFFFF;}
	.st3{fill:#23C84D;}
	.st4{fill-rule:evenodd;clip-rule:evenodd;}
</style>
<g>
	<g>
		<path class="st4" d="M9.2,7l4.4-4.4c0.6-0.6,0.6-1.5,0-2.1l-0.1-0.1c-0.6-0.6-1.5-0.6-2.1,0L7,4.8L2.6,0.4C2-0.1,1.1-0.1,0.5,0.4
			L0.4,0.5c-0.6,0.6-0.6,1.5,0,2.1L4.8,7l-4.4,4.4c-0.6,0.6-0.6,1.5,0,2.1l0.1,0.1c0.6,0.6,1.5,0.6,2.1,0L7,9.2l4.4,4.4
			c0.6,0.6,1.5,0.6,2.1,0l0.1-0.1c0.6-0.6,0.6-1.5,0-2.1L9.2,7z"/>
	</g>
</g>
</svg>
