<?xml version="1.0" encoding="utf-8"?>
<!-- Generator: Adobe Illustrator 25.0.0, SVG Export Plug-In . SVG Version: 6.00 Build 0)  -->
<svg version="1.1" id="Слой_1" xmlns="http://www.w3.org/2000/svg" xmlns:xlink="http://www.w3.org/1999/xlink" x="0px" y="0px"
	 viewBox="0 0 149.5 124.9" style="enable-background:new 0 0 149.5 124.9;" xml:space="preserve">
<style type="text/css">
	.st0{fill:#EE3F23;}
	.st1{fill:#0F1539;}
	.st2{fill:#FFFFFF;}
	.st3{fill:#23C84D;}
	.st4{fill-rule:evenodd;clip-rule:evenodd;}
</style>
<path class="st2" d="M13.7,62.1c0,26.8,27.3,48.5,61.1,48.5c11.5,0,22.2-2.5,31.4-6.9l27.9,7.5l-6.6-24.5v0
	c5.3-7.2,8.4-15.6,8.4-24.5c0-26.8-27.4-48.5-61.1-48.5S13.7,35.4,13.7,62.1z"/>
<g>
	<path class="st3" d="M142.2,89c4.8-8.3,7.3-17.5,7.3-26.9c0-17.2-8.2-33.2-23.1-45C112.5,6.1,94.1,0,74.7,0
		C55.4,0,37,6.1,23.1,17.2C8.2,29,0,44.9,0,62.1c0,17.2,8.2,33.2,23.1,45c13.9,11.1,32.3,17.2,51.7,17.2c11.3,0,22.4-2.1,32.4-6.1
		l23.3,6.2c1.2,0.3,2.4,0.5,3.5,0.5c3.6,0,7.1-1.4,9.7-4c3.4-3.5,4.8-8.5,3.5-13.2L142.2,89z M134,111.2l-27.9-7.5
		c-9.2,4.4-19.9,6.9-31.4,6.9c-33.7,0-61.1-21.7-61.1-48.5S41,13.7,74.7,13.7c33.7,0,61.1,21.7,61.1,48.5c0,9-3.1,17.4-8.4,24.5v0
		L134,111.2z"/>
	<path class="st3" d="M94.5,38.9c-3.3-1.9-7.4-0.8-9.3,2.5L71.1,65.8L64.3,54c-1.9-3.3-6.1-4.4-9.3-2.5c-3.3,1.9-4.4,6.1-2.5,9.3
		l12.7,22c0,0,0,0,0,0c0.1,0.2,0.3,0.5,0.5,0.7c0,0,0.1,0.1,0.1,0.1c0.1,0.2,0.3,0.4,0.5,0.5c0.1,0.1,0.1,0.1,0.2,0.2
		c0.1,0.1,0.3,0.3,0.4,0.4c0.1,0.1,0.1,0.1,0.2,0.2c0.2,0.1,0.4,0.3,0.6,0.4c0,0,0,0,0,0c0.2,0.1,0.4,0.2,0.6,0.3
		c0.1,0,0.2,0.1,0.2,0.1c0.1,0,0.2,0,0.2,0.1c0.8,0.3,1.6,0.4,2.3,0.4c0,0,0,0,0,0s0,0,0,0c0.8,0,1.6-0.1,2.3-0.4
		c0.1,0,0.2,0,0.2-0.1c0.1,0,0.2-0.1,0.2-0.1c0.2-0.1,0.4-0.2,0.6-0.3c0,0,0,0,0,0c0.2-0.1,0.4-0.3,0.6-0.4c0.1,0,0.1-0.1,0.2-0.2
		c0.2-0.1,0.3-0.3,0.4-0.4c0.1-0.1,0.1-0.1,0.2-0.2c0.2-0.2,0.3-0.3,0.5-0.5c0,0,0.1-0.1,0.1-0.1c0.2-0.2,0.3-0.5,0.5-0.7
		c0,0,0,0,0,0l20-34.6C98.9,45,97.8,40.8,94.5,38.9z"/>
</g>
</svg>
